<?xml version="1.0" encoding="iso-8859-1"?>
<!-- Generator: Adobe Illustrator 19.0.0, SVG Export Plug-In . SVG Version: 6.00 Build 0)  -->
<svg version="1.1" id="Capa_1" xmlns="http://www.w3.org/2000/svg" xmlns:xlink="http://www.w3.org/1999/xlink" x="0px" y="0px"
	 viewBox="0 0 512 512" style="enable-background:new 0 0 512 512;" xml:space="preserve">
<g>
	<path style="fill:#FEE8AF;" d="M451.254,147.526c-19.17,0-34.712-15.542-34.712-34.712c0,19.17-15.542,34.712-34.712,34.712
		h-95.458v60.746c0.026,39.303,24.142,74.561,60.746,88.854v23.96c0,19.17,15.542,34.712,34.712,34.712s34.712-15.542,34.712-34.712
		v-23.96c36.604-14.293,60.72-49.551,60.746-88.854v-60.746L451.254,147.526L451.254,147.526z"/>
	<path style="fill:#FEE8AF;" d="M477.288,182.237h17.356c9.589,0,17.356,7.767,17.356,17.356l0,0
		c0,9.589-7.767,17.356-17.356,17.356h-17.356V182.237z"/>
</g>
<path style="fill:#0B9FBD;" d="M347.119,69.424V43.39c0-19.17,15.542-34.712,34.712-34.712l0,0c19.17,0,34.712,15.542,34.712,34.712
	v26.034H347.119z"/>
<rect x="104.136" y="0" style="fill:#2AB69D;" width="17.356" height="190.915"/>
<g>
	<path style="fill:#42210B;" d="M364.475,208.271h-17.356v-8.678c0-4.79-3.888-8.678-8.678-8.678s-8.678,3.888-8.678,8.678v8.678
		h-17.356v-8.678c0-14.379,11.655-26.034,26.034-26.034s26.034,11.655,26.034,26.034V208.271z"/>
	<path style="fill:#42210B;" d="M451.254,208.271h-17.356v-8.678c0-4.79-3.888-8.678-8.678-8.678s-8.678,3.888-8.678,8.678v8.678
		h-17.356v-8.678c0-14.379,11.655-26.034,26.034-26.034s26.034,11.655,26.034,26.034V208.271z"/>
</g>
<path style="fill:#E65848;" d="M355.797,234.305h52.068v8.678c0,14.379-11.655,26.034-26.034,26.034l0,0
	c-14.379,0-26.034-11.655-26.034-26.034V234.305z"/>
<path style="fill:#FEE8AF;" d="M286.373,182.237h-17.356c-9.589,0-17.356,7.767-17.356,17.356l0,0
	c0,9.589,7.767,17.356,17.356,17.356h17.356V182.237z"/>
<polygon style="fill:#2AB69D;" points="216.949,312.407 216.949,364.475 251.661,364.475 251.661,512 512,512 512,312.407 "/>
<g>
	<path style="fill:#E65848;" d="M407.864,416.543h-52.068c-3.176,0-6.101-1.736-7.619-4.521l-54.35-99.614h19.786l47.338,86.78
		h41.767l47.338-86.78h19.959l-54.532,99.614C413.965,414.807,411.041,416.543,407.864,416.543z"/>
	<path style="fill:#E65848;" d="M90.372,0C80.211-0.026,70.456,4.009,63.288,11.212c-3.922,3.94-9.251,6.153-14.813,6.144H0v104.136
		h48.475c10.162,0.026,19.916-4.009,27.084-11.212c3.922-3.94,9.251-6.153,14.813-6.144h31.119V0H90.372z"/>
</g>
<path style="fill:#FEE8AF;" d="M147.525,234.305l34.712,78.102h34.712v52.068h-45.924c-14.197,0-26.954-8.643-32.23-21.816
	L95.458,234.305v-52.068h52.068V234.305z"/>
<rect x="95.458" y="182.237" style="fill:#FDC536;" width="52.068" height="52.068"/>
<path style="fill:#0B9FBD;" d="M477.288,147.526L477.288,147.526c0-47.928-38.851-86.78-86.78-86.78h-17.356
	c-47.928,0-86.78,38.851-86.78,86.78h95.458c19.17,0,34.712-15.542,34.712-34.712l0,0c0,19.17,15.542,34.712,34.712,34.712H477.288z
	"/>
<rect x="347.119" y="399.187" style="fill:#FDC536;" width="69.424" height="86.78"/>
<g>
</g>
<g>
</g>
<g>
</g>
<g>
</g>
<g>
</g>
<g>
</g>
<g>
</g>
<g>
</g>
<g>
</g>
<g>
</g>
<g>
</g>
<g>
</g>
<g>
</g>
<g>
</g>
<g>
</g>
</svg>
